<svg xmlns="http://www.w3.org/2000/svg" xmlns:xlink="http://www.w3.org/1999/xlink" width="500" zoomAndPan="magnify" viewBox="0 0 375 374.999991" height="500" preserveAspectRatio="xMidYMid meet" version="1.0"><defs><g/><clipPath id="220a4f78c3"><path d="M 101.742188 109.832031 L 185 109.832031 L 185 248.582031 L 101.742188 248.582031 Z M 101.742188 109.832031 " clip-rule="nonzero"/></clipPath><clipPath id="074942910a"><path d="M 184 109.832031 L 240.492188 109.832031 L 240.492188 138 L 184 138 Z M 184 109.832031 " clip-rule="nonzero"/></clipPath><clipPath id="337fe6af09"><path d="M 95.964844 115.414062 L 180 115.414062 L 180 254 L 95.964844 254 Z M 95.964844 115.414062 " clip-rule="nonzero"/></clipPath><clipPath id="0f2a29ced6"><path d="M 179 115.414062 L 234.714844 115.414062 L 234.714844 144 L 179 144 Z M 179 115.414062 " clip-rule="nonzero"/></clipPath><clipPath id="422a7441e9"><path d="M 52 77 L 174 77 L 174 248.726562 L 52 248.726562 Z M 52 77 " clip-rule="nonzero"/></clipPath><clipPath id="cdde842275"><path d="M 180 22.226562 L 231 22.226562 L 231 73 L 180 73 Z M 180 22.226562 " clip-rule="nonzero"/></clipPath><clipPath id="9327a7bccd"><path d="M 174.886719 202.65625 L 213.136719 202.65625 L 213.136719 257 L 174.886719 257 Z M 174.886719 202.65625 " clip-rule="nonzero"/></clipPath><clipPath id="478777f27c"><path d="M 213.207031 218 L 282.957031 218 L 282.957031 254.3125 L 213.207031 254.3125 Z M 213.207031 218 " clip-rule="nonzero"/></clipPath><clipPath id="9c6a3a5bfd"><path d="M 238 230 L 249 230 L 249 254.3125 L 238 254.3125 Z M 238 230 " clip-rule="nonzero"/></clipPath><clipPath id="191bd93141"><path d="M 238 197.3125 L 249 197.3125 L 249 224 L 238 224 Z M 238 197.3125 " clip-rule="nonzero"/></clipPath><clipPath id="d97a6616e3"><path d="M 213.207031 212 L 224 212 L 224 239 L 213.207031 239 Z M 213.207031 212 " clip-rule="nonzero"/></clipPath><clipPath id="fbabeada8a"><path d="M 124.550781 170.453125 L 158.300781 170.453125 L 158.300781 204.203125 L 124.550781 204.203125 Z M 124.550781 170.453125 " clip-rule="nonzero"/></clipPath><clipPath id="56b36aac9d"><path d="M 189.179688 209.800781 L 198.917969 209.800781 L 198.917969 219.539062 L 189.179688 219.539062 Z M 189.179688 209.800781 " clip-rule="nonzero"/></clipPath><clipPath id="c7afd30642"><path d="M 194.046875 209.800781 C 191.359375 209.800781 189.179688 211.980469 189.179688 214.667969 C 189.179688 217.359375 191.359375 219.539062 194.046875 219.539062 C 196.738281 219.539062 198.917969 217.359375 198.917969 214.667969 C 198.917969 211.980469 196.738281 209.800781 194.046875 209.800781 Z M 194.046875 209.800781 " clip-rule="nonzero"/></clipPath></defs><rect x="-37.5" width="450" fill="#ffffff" y="-37.499999" height="449.999989" fill-opacity="1"/><rect x="-37.5" width="450" fill="#ffffff" y="-37.499999" height="449.999989" fill-opacity="1"/><g clip-path="url(#220a4f78c3)"><path fill="#9da3a4" d="M 157.175781 109.832031 L 101.742188 109.832031 C 101.742188 125.140625 114.152344 137.546875 129.460938 137.546875 L 157.175781 137.546875 L 157.175781 220.699219 C 157.175781 236.007812 169.585938 248.417969 184.894531 248.417969 L 184.894531 137.546875 C 184.894531 122.238281 172.488281 109.832031 157.175781 109.832031 Z M 157.175781 109.832031 " fill-opacity="1" fill-rule="nonzero"/></g><g clip-path="url(#074942910a)"><path fill="#05685e" d="M 212.613281 109.832031 L 240.328125 109.832031 C 240.328125 125.125 227.90625 137.546875 212.613281 137.546875 L 184.894531 137.546875 C 184.894531 122.253906 197.316406 109.832031 212.613281 109.832031 Z M 212.613281 109.832031 " fill-opacity="1" fill-rule="nonzero"/></g><g clip-path="url(#337fe6af09)"><path fill="#d0dadb" d="M 151.398438 115.414062 L 95.964844 115.414062 C 95.964844 130.722656 108.375 143.132812 123.683594 143.132812 L 151.398438 143.132812 L 151.398438 226.28125 C 151.398438 241.59375 163.808594 254 179.117188 254 L 179.117188 143.132812 C 179.117188 127.824219 166.710938 115.414062 151.398438 115.414062 Z M 151.398438 115.414062 " fill-opacity="1" fill-rule="nonzero"/></g><g clip-path="url(#0f2a29ced6)"><path fill="#5dc499" d="M 206.835938 115.414062 L 234.550781 115.414062 C 234.550781 130.710938 222.128906 143.132812 206.835938 143.132812 L 179.117188 143.132812 C 179.117188 127.835938 191.539062 115.414062 206.835938 115.414062 Z M 206.835938 115.414062 " fill-opacity="1" fill-rule="nonzero"/></g><path fill="#15998b" d="M 65.839844 103.53125 C 67.28125 94.476562 70.964844 89.390625 74.558594 86.539062 C 76.648438 84.878906 79.480469 87.210938 78.277344 89.597656 C 72.203125 101.664062 75.699219 117.566406 82.253906 132.515625 C 74.9375 123.351562 68.703125 113.359375 65.839844 103.53125 " fill-opacity="1" fill-rule="nonzero"/><g clip-path="url(#422a7441e9)"><path fill="#15998b" d="M 156.75 171.035156 C 147.664062 162.730469 121.949219 141.320312 121.582031 128.410156 C 121.214844 115.503906 99.097656 130.9375 121.824219 160.449219 C 121.824219 160.449219 51.839844 130.976562 64.125 80.464844 C 64.828125 77.566406 60 76.71875 58.84375 79.464844 C 53.839844 91.363281 37.480469 123.207031 95.636719 176.46875 C 135.703125 213.164062 154.410156 216.542969 158.429688 248.300781 C 158.429688 248.300781 192.785156 203.964844 156.75 171.035156 " fill-opacity="1" fill-rule="nonzero"/></g><path fill="#15998b" d="M 77.140625 103.742188 C 77.066406 112.542969 79.933594 122.289062 84.101562 131.753906 C 81.523438 120.304688 81.53125 109.191406 86.667969 100.570312 C 88.035156 98.273438 85.378906 95.746094 83.171875 97.253906 C 81.117188 98.660156 78.988281 100.722656 77.140625 103.742188 " fill-opacity="1" fill-rule="nonzero"/><path fill="#df6493" d="M 243.566406 74.449219 C 222.085938 60.625 190.570312 62.644531 154.328125 80.03125 C 127.953125 65.363281 94.65625 66.199219 94.65625 66.199219 C 144.109375 82.050781 154.496094 109.808594 154.496094 109.808594 C 180.683594 91.171875 215.164062 88.066406 229.164062 96.824219 C 266.710938 120.316406 220.898438 206.59375 174.558594 240.054688 C 239.585938 203.121094 264.914062 156.386719 266.617188 123.640625 C 267.714844 102.515625 259.316406 84.585938 243.566406 74.449219 " fill-opacity="1" fill-rule="nonzero"/><g clip-path="url(#cdde842275)"><path fill="#df6493" d="M 230.742188 47.308594 C 230.742188 61.128906 219.535156 72.335938 205.714844 72.335938 C 191.890625 72.335938 180.683594 61.128906 180.683594 47.308594 C 180.683594 33.484375 191.890625 22.277344 205.714844 22.277344 C 219.535156 22.277344 230.742188 33.484375 230.742188 47.308594 " fill-opacity="1" fill-rule="nonzero"/></g><g clip-path="url(#9327a7bccd)"><path fill="#05685e" d="M 184.964844 242.554688 C 185.367188 229.027344 213.210938 218.835938 213.210938 218.835938 C 210.539062 218.945312 208.019531 219.269531 205.667969 219.695312 C 205.660156 219.699219 205.652344 219.699219 205.648438 219.699219 C 196.285156 221.398438 189.632812 224.679688 187.109375 222.101562 C 184.320312 219.242188 188.722656 207.503906 194.285156 202.667969 C 182.707031 209.183594 174.886719 221.589844 174.886719 235.824219 C 174.886719 236.191406 174.890625 236.558594 174.902344 236.917969 C 175.125 243.847656 177.476562 249.863281 182.410156 253.441406 C 188.089844 257.578125 197.199219 258.480469 210.414062 253.839844 C 195.828125 253.878906 184.691406 251.792969 184.964844 242.554688 Z M 184.964844 242.554688 " fill-opacity="1" fill-rule="nonzero"/></g><path fill="#05685e" d="M 198.625 214.367188 C 198.667969 214.640625 198.683594 214.910156 198.675781 215.183594 C 198.664062 215.460938 198.628906 215.730469 198.566406 215.996094 C 198.503906 216.265625 198.414062 216.523438 198.300781 216.773438 C 198.1875 217.019531 198.050781 217.257812 197.890625 217.480469 C 197.730469 217.703125 197.546875 217.90625 197.347656 218.09375 C 197.144531 218.28125 196.929688 218.445312 196.695312 218.589844 C 196.460938 218.734375 196.21875 218.855469 195.960938 218.953125 C 195.703125 219.046875 195.441406 219.117188 195.167969 219.160156 C 194.898438 219.203125 194.625 219.222656 194.351562 219.210938 C 194.078125 219.203125 193.804688 219.167969 193.539062 219.101562 C 193.273438 219.039062 193.015625 218.953125 192.765625 218.835938 C 192.515625 218.722656 192.277344 218.585938 192.058594 218.425781 C 191.835938 218.265625 191.628906 218.085938 191.441406 217.882812 C 191.253906 217.683594 191.089844 217.464844 190.945312 217.234375 C 190.800781 217 190.679688 216.753906 190.585938 216.496094 C 190.488281 216.242188 190.417969 215.976562 190.375 215.707031 C 190.332031 215.433594 190.316406 215.164062 190.324219 214.886719 C 190.335938 214.613281 190.371094 214.34375 190.433594 214.078125 C 190.496094 213.808594 190.585938 213.550781 190.699219 213.300781 C 190.8125 213.050781 190.949219 212.816406 191.109375 212.59375 C 191.269531 212.371094 191.453125 212.167969 191.652344 211.980469 C 191.851562 211.792969 192.070312 211.625 192.304688 211.484375 C 192.535156 211.339844 192.78125 211.21875 193.039062 211.121094 C 193.296875 211.027344 193.558594 210.957031 193.832031 210.914062 C 194.101562 210.867188 194.375 210.851562 194.648438 210.863281 C 194.921875 210.871094 195.191406 210.90625 195.460938 210.972656 C 195.726562 211.035156 195.984375 211.121094 196.234375 211.234375 C 196.484375 211.351562 196.71875 211.488281 196.941406 211.648438 C 197.164062 211.808594 197.371094 211.988281 197.558594 212.191406 C 197.746094 212.390625 197.910156 212.605469 198.054688 212.839844 C 198.199219 213.074219 198.316406 213.320312 198.414062 213.578125 C 198.511719 213.832031 198.578125 214.097656 198.625 214.367188 Z M 198.625 214.367188 " fill-opacity="1" fill-rule="nonzero"/><g clip-path="url(#478777f27c)"><path fill="#df6493" d="M 213.296875 254.003906 C 213.296875 254.003906 238.050781 223.164062 282.785156 218.742188 C 282.785156 218.742188 244.71875 212.773438 213.296875 242.683594 " fill-opacity="1" fill-rule="nonzero"/></g><path fill="#ffffff" d="M 238.960938 233.09375 L 238.960938 235.644531 C 241.960938 233.886719 245.214844 232.167969 248.714844 230.558594 L 248.714844 228.003906 C 245.214844 229.613281 241.960938 231.332031 238.960938 233.09375 " fill-opacity="1" fill-rule="nonzero"/><g clip-path="url(#9c6a3a5bfd)"><path fill="#05685e" d="M 238.960938 235.644531 L 238.960938 254.003906 L 248.714844 247.820312 L 248.714844 230.558594 C 245.214844 232.167969 241.960938 233.886719 238.960938 235.644531 " fill-opacity="1" fill-rule="nonzero"/></g><g clip-path="url(#191bd93141)"><path fill="#05685e" d="M 238.960938 204.761719 L 238.960938 223.332031 C 242.308594 222.046875 245.578125 221.027344 248.714844 220.21875 L 248.714844 197.316406 L 238.960938 204.761719 " fill-opacity="1" fill-rule="nonzero"/></g><g clip-path="url(#d97a6616e3)"><path fill="#05685e" d="M 213.296875 219.554688 L 213.296875 238.683594 C 216.511719 235.917969 219.777344 233.503906 223.050781 231.398438 L 223.050781 212.109375 L 213.296875 219.554688 " fill-opacity="1" fill-rule="nonzero"/></g><g clip-path="url(#fbabeada8a)"><path fill="#ffffff" d="M 158.640625 187.5 C 158.640625 196.953125 151.050781 204.542969 141.597656 204.542969 C 132.144531 204.542969 124.550781 196.953125 124.550781 187.5 C 124.550781 178.046875 132.144531 170.453125 141.597656 170.453125 C 151.050781 170.453125 158.640625 178.046875 158.640625 187.5 Z M 152.445312 183.546875 L 145.546875 183.546875 L 145.546875 176.652344 L 137.566406 176.652344 L 137.566406 183.546875 L 130.671875 183.546875 L 130.671875 191.527344 L 137.566406 191.527344 L 137.566406 198.347656 L 145.546875 198.347656 L 145.546875 191.449219 L 152.445312 191.449219 Z M 152.445312 183.546875 " fill-opacity="1" fill-rule="nonzero"/></g><g clip-path="url(#56b36aac9d)"><g clip-path="url(#c7afd30642)"><path fill="#df6493" d="M 189.179688 209.800781 L 198.917969 209.800781 L 198.917969 219.539062 L 189.179688 219.539062 Z M 189.179688 209.800781 " fill-opacity="1" fill-rule="nonzero"/></g></g><g fill="#05685e" fill-opacity="1"><g transform="translate(131.173935, 278.188633)"><g><path d="M 9.476562 -13.253906 L -0.109375 -13.253906 L -0.109375 -10.667969 L 3.246094 -10.667969 L 3.246094 0 L 6.140625 0 L 6.140625 -10.667969 L 9.476562 -10.667969 Z M 9.476562 -13.253906 "/></g></g></g><g fill="#05685e" fill-opacity="1"><g transform="translate(141.541057, 278.188633)"><g><path d="M 9.609375 -13.253906 L 9.609375 -7.929688 L 4.21875 -7.929688 L 4.21875 -13.253906 L 1.304688 -13.253906 L 1.304688 0 L 4.21875 0 L 4.21875 -5.34375 L 9.609375 -5.34375 L 9.609375 0 L 12.5 0 L 12.5 -13.253906 Z M 9.609375 -13.253906 "/></g></g></g><g fill="#05685e" fill-opacity="1"><g transform="translate(156.367361, 278.188633)"><g><path d="M 9.410156 0 L 12.523438 0 L 7.753906 -13.253906 L 4.484375 -13.253906 L -0.289062 0 L 2.828125 0 L 3.644531 -2.496094 L 8.59375 -2.496094 Z M 4.417969 -4.925781 L 6.117188 -10.183594 L 7.820312 -4.925781 Z M 4.417969 -4.925781 "/></g></g></g><g fill="#05685e" fill-opacity="1"><g transform="translate(169.604252, 278.188633)"><g><path d="M 10.824219 -13.253906 L 10.824219 -4.484375 L 4.308594 -13.253906 L 1.304688 -13.253906 L 1.304688 0 L 4.21875 0 L 4.21875 -8.789062 L 10.710938 0 L 13.714844 0 L 13.714844 -13.253906 Z M 10.824219 -13.253906 "/></g></g></g><g fill="#05685e" fill-opacity="1"><g transform="translate(185.644679, 278.188633)"><g><path d="M 11.90625 -13.253906 L 8.660156 -13.253906 L 5.832031 -8.769531 L 3.003906 -13.253906 L -0.289062 -13.253906 L 4.375 -6.230469 L 4.375 0 L 7.289062 0 L 7.289062 -6.25 Z M 11.90625 -13.253906 "/></g></g></g><g fill="#05685e" fill-opacity="1"><g transform="translate(198.285536, 278.188633)"><g><path d="M 9.410156 0 L 12.523438 0 L 7.753906 -13.253906 L 4.484375 -13.253906 L -0.289062 0 L 2.828125 0 L 3.644531 -2.496094 L 8.59375 -2.496094 Z M 4.417969 -4.925781 L 6.117188 -10.183594 L 7.820312 -4.925781 Z M 4.417969 -4.925781 "/></g></g></g><g fill="#05685e" fill-opacity="1"><g transform="translate(211.522424, 278.188633)"><g><path d="M 8.214844 -5.457031 C 9.785156 -5.917969 10.890625 -7.378906 10.890625 -9.1875 C 10.890625 -11.441406 9.210938 -13.253906 6.933594 -13.253906 L 1.304688 -13.253906 L 1.304688 0 L 4.21875 0 L 4.21875 -5.125 L 5.390625 -5.125 L 8.660156 0 L 11.925781 0 Z M 6.492188 -7.53125 L 4.21875 -7.53125 L 4.21875 -10.667969 L 6.492188 -10.667969 C 7.421875 -10.667969 8.105469 -10.003906 8.105469 -9.101562 C 8.105469 -8.171875 7.421875 -7.53125 6.492188 -7.53125 Z M 6.492188 -7.53125 "/></g></g></g><g fill="#05685e" fill-opacity="1"><g transform="translate(224.339886, 278.188633)"><g><path d="M 9.410156 0 L 12.523438 0 L 7.753906 -13.253906 L 4.484375 -13.253906 L -0.289062 0 L 2.828125 0 L 3.644531 -2.496094 L 8.59375 -2.496094 Z M 4.417969 -4.925781 L 6.117188 -10.183594 L 7.820312 -4.925781 Z M 4.417969 -4.925781 "/></g></g></g><g fill="#05685e" fill-opacity="1"><g transform="translate(237.57678, 278.188633)"><g><path d="M 9.585938 0 L 13.472656 0 L 7.089844 -7.355469 L 12.8125 -13.253906 L 9.054688 -13.253906 L 4.726562 -8.570312 L 4.21875 -8.570312 L 4.21875 -13.253906 L 1.304688 -13.253906 L 1.304688 0 L 4.21875 0 L 4.21875 -6.050781 L 4.636719 -6.050781 Z M 9.585938 0 "/></g></g></g><g fill="#0f699b" fill-opacity="1"><g transform="translate(251.595805, 278.188633)"><g/></g></g><g fill="#05685e" fill-opacity="1"><g transform="translate(149.774466, 313.04576)"><g><path d="M 9.507812 -12.1875 L 9.507812 -6.746094 L 2.785156 -6.746094 L 2.785156 -12.1875 L 1.484375 -12.1875 L 1.484375 0 L 2.785156 0 L 2.785156 -5.445312 L 9.507812 -5.445312 L 9.507812 0 L 10.808594 0 L 10.808594 -12.1875 Z M 9.507812 -12.1875 "/></g></g></g><g fill="#05685e" fill-opacity="1"><g transform="translate(164.301142, 313.04576)"><g><path d="M 5.140625 0.164062 C 7.476562 0.164062 9.367188 -1.726562 9.367188 -4.0625 C 9.367188 -6.398438 7.476562 -8.289062 5.140625 -8.289062 C 2.804688 -8.289062 0.914062 -6.398438 0.914062 -4.0625 C 0.914062 -1.726562 2.804688 0.164062 5.140625 0.164062 Z M 5.140625 -1.097656 C 3.496094 -1.097656 2.171875 -2.417969 2.171875 -4.0625 C 2.171875 -5.707031 3.496094 -7.027344 5.140625 -7.027344 C 6.765625 -7.027344 8.105469 -5.707031 8.105469 -4.0625 C 8.105469 -2.417969 6.765625 -1.097656 5.140625 -1.097656 Z M 5.140625 -1.097656 "/></g></g></g><g fill="#05685e" fill-opacity="1"><g transform="translate(176.817858, 313.04576)"><g><path d="M 3.496094 0.164062 C 4.917969 0.164062 6.09375 -0.792969 6.09375 -2.195312 C 6.09375 -3.65625 4.875 -4.226562 3.820312 -4.652344 C 2.824219 -5.078125 2.316406 -5.300781 2.316406 -6.011719 C 2.316406 -6.703125 2.785156 -7.027344 3.453125 -7.027344 C 3.980469 -7.027344 4.449219 -6.804688 4.671875 -6.378906 L 5.769531 -6.949219 C 5.464844 -7.679688 4.429688 -8.289062 3.394531 -8.289062 C 2.195312 -8.289062 1.035156 -7.457031 1.035156 -5.972656 C 1.035156 -4.691406 1.890625 -4.042969 3.332031 -3.496094 C 4.308594 -3.109375 4.835938 -2.84375 4.835938 -2.195312 C 4.835938 -1.484375 4.226562 -1.078125 3.496094 -1.078125 C 2.742188 -1.078125 2.011719 -1.503906 1.890625 -2.09375 L 0.671875 -1.605469 C 0.976562 -0.628906 2.195312 0.164062 3.496094 0.164062 Z M 3.496094 0.164062 "/></g></g></g><g fill="#05685e" fill-opacity="1"><g transform="translate(185.781594, 313.04576)"><g><path d="M 5.707031 -8.289062 C 4.550781 -8.289062 3.515625 -7.820312 2.742188 -7.070312 L 2.742188 -8.125 L 1.484375 -8.125 L 1.484375 4.875 L 2.742188 4.875 L 2.742188 -1.054688 C 3.515625 -0.304688 4.550781 0.164062 5.707031 0.164062 C 8.046875 0.164062 9.933594 -1.726562 9.933594 -4.0625 C 9.933594 -6.398438 8.046875 -8.289062 5.707031 -8.289062 Z M 5.707031 -1.097656 C 4.0625 -1.097656 2.742188 -2.417969 2.742188 -4.0625 C 2.742188 -5.707031 4.0625 -7.027344 5.707031 -7.027344 C 7.355469 -7.027344 8.675781 -5.707031 8.675781 -4.0625 C 8.675781 -2.417969 7.355469 -1.097656 5.707031 -1.097656 Z M 5.707031 -1.097656 "/></g></g></g><g fill="#05685e" fill-opacity="1"><g transform="translate(198.866784, 313.04576)"><g><path d="M 2.273438 -9.648438 C 2.742188 -9.648438 3.148438 -10.035156 3.148438 -10.503906 C 3.148438 -11.011719 2.742188 -11.375 2.273438 -11.375 C 1.789062 -11.375 1.382812 -11.011719 1.382812 -10.503906 C 1.382812 -10.035156 1.789062 -9.648438 2.273438 -9.648438 Z M 1.644531 0 L 2.90625 0 L 2.90625 -8.125 L 1.644531 -8.125 Z M 1.644531 0 "/></g></g></g><g fill="#05685e" fill-opacity="1"><g transform="translate(205.637824, 313.04576)"><g><path d="M 5.222656 -6.90625 L 5.222656 -8.125 L 3.046875 -8.125 L 3.046875 -11.660156 L 1.789062 -11.660156 L 1.789062 -8.125 L 0.425781 -8.125 L 0.425781 -6.90625 L 1.789062 -6.90625 L 1.789062 -2.132812 C 1.789062 -0.851562 2.863281 0.164062 4.125 0.164062 C 4.53125 0.164062 4.976562 0.0390625 5.199219 -0.101562 L 5.199219 -1.054688 L 4.265625 -1.054688 C 3.617188 -1.054688 3.046875 -1.542969 3.046875 -2.296875 L 3.046875 -6.90625 Z M 5.222656 -6.90625 "/></g></g></g><g fill="#05685e" fill-opacity="1"><g transform="translate(213.769154, 313.04576)"><g><path d="M 10.199219 -1.054688 C 9.75 -1.054688 9.367188 -1.359375 9.367188 -2.113281 L 9.367188 -8.125 L 8.105469 -8.125 L 8.105469 -7.070312 C 7.355469 -7.820312 6.296875 -8.289062 5.140625 -8.289062 C 2.804688 -8.289062 0.914062 -6.398438 0.914062 -4.0625 C 0.914062 -1.726562 2.804688 0.164062 5.140625 0.164062 C 6.359375 0.164062 7.457031 -0.40625 8.226562 -1.238281 C 8.492188 -0.40625 9.140625 0.164062 10.097656 0.164062 C 10.320312 0.164062 10.542969 0.101562 10.707031 0 L 10.707031 -1.054688 Z M 5.140625 -1.097656 C 3.496094 -1.097656 2.171875 -2.417969 2.171875 -4.0625 C 2.171875 -5.707031 3.496094 -7.027344 5.140625 -7.027344 C 6.765625 -7.027344 8.105469 -5.707031 8.105469 -4.0625 C 8.105469 -2.417969 6.765625 -1.097656 5.140625 -1.097656 Z M 5.140625 -1.097656 "/></g></g></g><g fill="#05685e" fill-opacity="1"><g transform="translate(226.955854, 313.04576)"><g><path d="M 1.484375 0 L 2.742188 0 L 2.742188 -14.953125 L 1.484375 -14.953125 Z M 1.484375 0 "/></g></g></g><g fill="#05685e" fill-opacity="1"><g transform="translate(233.422898, 313.04576)"><g/></g></g><g fill="#cf4a7e" fill-opacity="1"><g transform="translate(134.246992, 294.567636)"><g><path d="M 7.621094 0.175781 C 10.25 0.175781 12.523438 -1.304688 13.648438 -3.46875 L 11.132812 -4.769531 C 10.492188 -3.511719 9.1875 -2.671875 7.621094 -2.671875 C 5.390625 -2.671875 3.6875 -4.394531 3.6875 -6.625 C 3.6875 -8.855469 5.390625 -10.578125 7.621094 -10.578125 C 9.1875 -10.578125 10.492188 -9.742188 11.132812 -8.480469 L 13.648438 -9.785156 C 12.523438 -11.949219 10.25 -13.429688 7.621094 -13.429688 C 3.867188 -13.429688 0.816406 -10.382812 0.816406 -6.625 C 0.816406 -2.871094 3.867188 0.175781 7.621094 0.175781 Z M 7.621094 0.175781 "/></g></g></g><g fill="#cf4a7e" fill-opacity="1"><g transform="translate(149.470644, 294.567636)"><g><path d="M 9.609375 -13.253906 L 9.609375 -7.929688 L 4.21875 -7.929688 L 4.21875 -13.253906 L 1.304688 -13.253906 L 1.304688 0 L 4.21875 0 L 4.21875 -5.34375 L 9.609375 -5.34375 L 9.609375 0 L 12.5 0 L 12.5 -13.253906 Z M 9.609375 -13.253906 "/></g></g></g><g fill="#cf4a7e" fill-opacity="1"><g transform="translate(164.296946, 294.567636)"><g><path d="M 1.414062 0 L 4.328125 0 L 4.328125 -13.253906 L 1.414062 -13.253906 Z M 1.414062 0 "/></g></g></g><g fill="#cf4a7e" fill-opacity="1"><g transform="translate(171.021677, 294.567636)"><g><path d="M 9.410156 0 L 12.523438 0 L 7.753906 -13.253906 L 4.484375 -13.253906 L -0.289062 0 L 2.828125 0 L 3.644531 -2.496094 L 8.59375 -2.496094 Z M 4.417969 -4.925781 L 6.117188 -10.183594 L 7.820312 -4.925781 Z M 4.417969 -4.925781 "/></g></g></g><g fill="#cf4a7e" fill-opacity="1"><g transform="translate(184.258568, 294.567636)"><g><path d="M 10.824219 -13.253906 L 10.824219 -4.484375 L 4.308594 -13.253906 L 1.304688 -13.253906 L 1.304688 0 L 4.21875 0 L 4.21875 -8.789062 L 10.710938 0 L 13.714844 0 L 13.714844 -13.253906 Z M 10.824219 -13.253906 "/></g></g></g><g fill="#cf4a7e" fill-opacity="1"><g transform="translate(200.298996, 294.567636)"><g><path d="M 7.621094 -7.265625 L 7.621094 -4.992188 L 11.265625 -4.992188 C 10.644531 -3.601562 9.277344 -2.671875 7.640625 -2.671875 C 5.410156 -2.671875 3.6875 -4.394531 3.6875 -6.625 C 3.6875 -8.855469 5.410156 -10.578125 7.640625 -10.578125 C 9.210938 -10.578125 10.492188 -9.742188 11.152344 -8.480469 L 13.671875 -9.785156 C 12.523438 -11.949219 10.25 -13.429688 7.640625 -13.429688 C 3.867188 -13.429688 0.839844 -10.382812 0.839844 -6.625 C 0.839844 -2.871094 3.867188 0.175781 7.640625 0.175781 C 11.398438 0.175781 14.445312 -2.871094 14.445312 -6.625 L 14.445312 -7.265625 Z M 7.621094 -7.265625 "/></g></g></g><g fill="#cf4a7e" fill-opacity="1"><g transform="translate(216.582255, 294.567636)"><g><path d="M 12.855469 -13.253906 L 8.636719 -4.085938 L 4.460938 -13.253906 L 1.304688 -13.253906 L 1.304688 0 L 4.21875 0 L 4.21875 -7.90625 L 7.796875 0 L 9.476562 0 L 13.074219 -7.886719 L 13.074219 0 L 15.992188 0 L 15.992188 -13.253906 Z M 12.855469 -13.253906 "/></g></g></g><g fill="#cf4a7e" fill-opacity="1"><g transform="translate(234.874347, 294.567636)"><g><path d="M 9.410156 0 L 12.523438 0 L 7.753906 -13.253906 L 4.484375 -13.253906 L -0.289062 0 L 2.828125 0 L 3.644531 -2.496094 L 8.59375 -2.496094 Z M 4.417969 -4.925781 L 6.117188 -10.183594 L 7.820312 -4.925781 Z M 4.417969 -4.925781 "/></g></g></g><g fill="#cf4a7e" fill-opacity="1"><g transform="translate(248.111235, 294.567636)"><g><path d="M 1.414062 0 L 4.328125 0 L 4.328125 -13.253906 L 1.414062 -13.253906 Z M 1.414062 0 "/></g></g></g></svg>